<svg width="15" height="15" viewBox="0 0 15 15" fill="none" xmlns="http://www.w3.org/2000/svg">
<path d="M14.0112 3.73132L13.3905 3.11046C13.3907 3.11064 13.3904 3.11028 13.3905 3.11046L11.1592 0.87854C11.0127 0.732056 10.7754 0.732056 10.6289 0.87854C10.4824 1.02502 10.4824 1.26233 10.6289 1.40881L11.9393 2.71944L11.2383 4.58862C10.9805 5.2749 11.1489 6.05383 11.6675 6.57312L14.25 9.15527V12.75C14.25 13.5769 13.5769 14.25 12.75 14.25C11.9231 14.25 11.25 13.5769 11.25 12.75V10.875C11.25 9.84082 10.4092 9 9.375 9H9V1.875C9 0.841187 8.15918 0 7.125 0H1.875C0.841187 0 0 0.841187 0 1.875V13.125C0 14.1592 0.841187 15 1.875 15H7.125C8.15918 15 9 14.1592 9 13.125V9.75H9.375C9.99536 9.75 10.5 10.2546 10.5 10.875V12.75C10.5 13.9907 11.5093 15 12.75 15C13.9907 15 15 13.9907 15 12.75V6.11755C15 5.22949 14.6396 4.35974 14.0112 3.73132ZM8.25 13.125C8.25 13.7454 7.74536 14.25 7.125 14.25H1.875C1.25464 14.25 0.75 13.7454 0.75 13.125V6.75H8.25V13.125ZM8.25 6H0.75V1.875C0.75 1.25464 1.25464 0.75 1.875 0.75H7.125C7.74536 0.75 8.25 1.25464 8.25 1.875V6ZM14.25 8.09473L12.1978 6.04321C11.8872 5.73157 11.7861 5.26392 11.9399 4.85229L12.5215 3.30212L13.481 4.2616C13.9695 4.75049 14.25 5.42688 14.25 6.11755V8.09473Z" fill="black"/>
</svg>
